# xmcd CD database file
#
# Track frame offsets:
#	187
#	19815
#	45502
#	63202
#	89885
#	111395
#	137027
#	155202
#
# Disc length: 2321 seconds
#
# Revision: 0
# Processed by: cddbd v1.5.2PL0 Copyright (c) Steve Scherf et al.
# Submitted via: CDex 1.70beta2
#
DISCID=70090f08
DTITLE=Norio Maeda, Takeshi Inomata, Yasuo Arakawa, Kohnosuke Saijoh, Tadayuki Harada, Akiyoshi Hushimi - alone together
DYEAR=1975
DGENRE=Jazz
TTITLE0=These foolish things
TTITLE1=I'll remember you (Nothing But Love)
TTITLE2=In A Sentimental mood
TTITLE3=Like someone in love
TTITLE4=Alone together
TTITLE5=Love is here to stay
TTITLE6=You don't know what love is
TTITLE7=The things we did last Summer
EXTD=YEAR: 1975
EXTT0=
EXTT1=
EXTT2=
EXTT3=
EXTT4=
EXTT5=
EXTT6=
EXTT7=
PLAYORDER=
